HIERARCHY
ROOT Hips
{
    OFFSET 0.000000 0.000000 0.000000
    CHANNELS 6 Xposition Yposition Zposition Zrotation Xrotation Yrotation
    JOINT Spine
    {
        OFFSET -0.000000 0.076824 0.000000
        CHANNELS 3 Zrotation Xrotation Yrotation
        JOINT Spine1
        {
            OFFSET -0.000000 0.205639 0.000000
            CHANNELS 3 Zrotation Xrotation Yrotation
            JOINT Neck
            {
                OFFSET -0.000000 0.204794 0.018618
                CHANNELS 3 Zrotation Xrotation Yrotation
                JOINT Head
                {
                    OFFSET -0.000000 0.131164 -0.018738
                    CHANNELS 3 Zrotation Xrotation Yrotation
                    End Site
                    {
                        OFFSET -0.000000 0.187377 0.000000
                    }
                }
            }
            JOINT LeftShoulder
            {
                OFFSET 0.037892 0.189814 -0.002396
                CHANNELS 3 Zrotation Xrotation Yrotation
                JOINT LeftArm
                {
                    OFFSET 0.104721 0.000000 0.000000
                    CHANNELS 3 Zrotation Xrotation Yrotation
                    JOINT LeftForeArm
                    {
                        OFFSET 0.316555 0.000000 0.000000
                        CHANNELS 3 Zrotation Xrotation Yrotation
                        JOINT LeftHand
                        {
                            OFFSET 0.270628 0.000000 0.000000
                            CHANNELS 3 Zrotation Xrotation Yrotation
                            JOINT LeftHandThumb1
                            {
                                OFFSET 0.023422 -0.014053 0.046844
                                CHANNELS 3 Zrotation Xrotation Yrotation
                                JOINT LeftHandThumb2
                                {
                                    OFFSET 0.028107 0.000000 0.000000
                                    CHANNELS 3 Zrotation Xrotation Yrotation
                                    JOINT LeftHandThumb3
                                    {
                                        OFFSET 0.028107 0.000000 0.000000
                                        CHANNELS 3 Zrotation Xrotation Yrotation
                                        End Site
                                        {
                                            OFFSET 0.026333 0.000000 0.000000
                                        }
                                    }
                                }
                            }
                            JOINT LeftHandIndex1
                            {
                                OFFSET 0.084320 0.000000 0.032791
                                CHANNELS 3 Zrotation Xrotation Yrotation
                                JOINT LeftHandIndex2
                                {
                                    OFFSET 0.046844 0.000000 0.000000
                                    CHANNELS 3 Zrotation Xrotation Yrotation
                                    JOINT LeftHandIndex3
                                    {
                                        OFFSET 0.023422 0.000000 0.000000
                                        CHANNELS 3 Zrotation Xrotation Yrotation
                                        End Site
                                        {
                                            OFFSET 0.021944 0.000000 0.000000
                                        }
                                    }
                                }
                            }
                            JOINT LeftHandMiddle1
                            {
                                OFFSET 0.084320 0.000000 0.010868
                                CHANNELS 3 Zrotation Xrotation Yrotation
                                JOINT LeftHandMiddle2
                                {
                                    OFFSET 0.051529 0.000000 0.000000
                                    CHANNELS 3 Zrotation Xrotation Yrotation
                                    JOINT LeftHandMiddle3
                                    {
                                        OFFSET 0.028107 0.000000 0.000000
                                        CHANNELS 3 Zrotation Xrotation Yrotation
                                        End Site
                                        {
                                            OFFSET 0.026333 0.000000 0.000000
                                        }
                                    }
                                }
                            }
                            JOINT LeftHandRing1
                            {
                                OFFSET 0.079635 0.000000 -0.010868
                                CHANNELS 3 Zrotation Xrotation Yrotation
                                JOINT LeftHandRing2
                                {
                                    OFFSET 0.046844 0.000000 0.000000
                                    CHANNELS 3 Zrotation Xrotation Yrotation
                                    JOINT LeftHandRing3
                                    {
                                        OFFSET 0.023422 0.000000 0.000000
                                        CHANNELS 3 Zrotation Xrotation Yrotation
                                        End Site
                                        {
                                            OFFSET 0.021944 0.000000 0.000000
                                        }
                                    }
                                }
                            }
                            JOINT LeftHandPinky1
                            {
                                OFFSET 0.074951 0.000000 -0.032791
                                CHANNELS 3 Zrotation Xrotation Yrotation
                                JOINT LeftHandPinky2
                                {
                                    OFFSET 0.037475 0.000000 0.000000
                                    CHANNELS 3 Zrotation Xrotation Yrotation
                                    JOINT LeftHandPinky3
                                    {
                                        OFFSET 0.018738 0.000000 0.000000
                                        CHANNELS 3 Zrotation Xrotation Yrotation
                                        End Site
                                        {
                                            OFFSET 0.017555 0.000000 0.000000
                                        }
                                    }
                                }
                            }
                        }
                    }
                }
            }
            JOINT RightShoulder
            {
                OFFSET -0.036963 0.189814 -0.002396
                CHANNELS 3 Zrotation Xrotation Yrotation
                JOINT RightArm
                {
                    OFFSET -0.104721 0.000000 0.000000
                    CHANNELS 3 Zrotation Xrotation Yrotation
                    JOINT RightForeArm
                    {
                        OFFSET -0.316555 0.000000 0.000000
                        CHANNELS 3 Zrotation Xrotation Yrotation
                        JOINT RightHand
                        {
                            OFFSET -0.270628 0.000000 0.000000
                            CHANNELS 3 Zrotation Xrotation Yrotation
                            JOINT RightHandThumb1
                            {
                                OFFSET -0.023422 -0.014053 0.046844
                                CHANNELS 3 Zrotation Xrotation Yrotation
                                JOINT RightHandThumb2
                                {
                                    OFFSET -0.028107 0.000000 0.000000
                                    CHANNELS 3 Zrotation Xrotation Yrotation
                                    JOINT RightHandThumb3
                                    {
                                        OFFSET -0.028107 0.000000 0.000000
                                        CHANNELS 3 Zrotation Xrotation Yrotation
                                        End Site
                                        {
                                            OFFSET -0.026333 0.000000 0.000000
                                        }
                                    }
                                }
                            }
                            JOINT RightHandIndex1
                            {
                                OFFSET -0.084320 0.000000 0.032791
                                CHANNELS 3 Zrotation Xrotation Yrotation
                                JOINT RightHandIndex2
                                {
                                    OFFSET -0.046844 0.000000 0.000000
                                    CHANNELS 3 Zrotation Xrotation Yrotation
                                    JOINT RightHandIndex3
                                    {
                                        OFFSET -0.023422 0.000000 0.000000
                                        CHANNELS 3 Zrotation Xrotation Yrotation
                                        End Site
                                        {
                                            OFFSET -0.021944 0.000000 0.000000
                                        }
                                    }
                                }
                            }
                            JOINT RightHandMiddle1
                            {
                                OFFSET -0.084320 0.000000 0.010868
                                CHANNELS 3 Zrotation Xrotation Yrotation
                                JOINT RightHandMiddle2
                                {
                                    OFFSET -0.051529 0.000000 0.000000
                                    CHANNELS 3 Zrotation Xrotation Yrotation
                                    JOINT RightHandMiddle3
                                    {
                                        OFFSET -0.028107 0.000000 0.000000
                                        CHANNELS 3 Zrotation Xrotation Yrotation
                                        End Site
                                        {
                                            OFFSET -0.026333 0.000000 0.000000
                                        }
                                    }
                                }
                            }
                            JOINT RightHandRing1
                            {
                                OFFSET -0.079635 0.000000 -0.010868
                                CHANNELS 3 Zrotation Xrotation Yrotation
                                JOINT RightHandRing2
                                {
                                    OFFSET -0.046844 0.000000 0.000000
                                    CHANNELS 3 Zrotation Xrotation Yrotation
                                    JOINT RightHandRing3
                                    {
                                        OFFSET -0.023422 0.000000 0.000000
                                        CHANNELS 3 Zrotation Xrotation Yrotation
                                        End Site
                                        {
                                            OFFSET -0.021944 0.000000 0.000000
                                        }
                                    }
                                }
                            }
                            JOINT RightHandPinky1
                            {
                                OFFSET -0.074951 0.000000 -0.032791
                                CHANNELS 3 Zrotation Xrotation Yrotation
                                JOINT RightHandPinky2
                                {
                                    OFFSET -0.037475 0.000000 0.000000
                                    CHANNELS 3 Zrotation Xrotation Yrotation
                                    JOINT RightHandPinky3
                                    {
                                        OFFSET -0.018738 0.000000 0.000000
                                        CHANNELS 3 Zrotation Xrotation Yrotation
                                        End Site
                                        {
                                            OFFSET -0.017555 0.000000 0.000000
                                        }
                                    }
                                }
                            }
                        }
                    }
                }
            }
        }
    }
    JOINT LeftUpLeg
    {
        OFFSET 0.093688 0.000000 0.000000
        CHANNELS 3 Zrotation Xrotation Yrotation
        JOINT LeftLeg
        {
            OFFSET -0.000000 -0.377687 0.000000
            CHANNELS 3 Zrotation Xrotation Yrotation
            JOINT LeftFoot
            {
                OFFSET -0.000000 -0.399231 0.000000
                CHANNELS 3 Zrotation Xrotation Yrotation
                JOINT LeftToeBase
                {
                    OFFSET -0.000000 -0.060897 0.140533
                    CHANNELS 3 Zrotation Xrotation Yrotation
                    End Site
                    {
                        OFFSET -0.000000 0.000000 0.037475
                    }
                }
            }
        }
    }
    JOINT RightUpLeg
    {
        OFFSET -0.093688 0.000000 0.000000
        CHANNELS 3 Zrotation Xrotation Yrotation
        JOINT RightLeg
        {
            OFFSET -0.000000 -0.377687 0.000000
            CHANNELS 3 Zrotation Xrotation Yrotation
            JOINT RightFoot
            {
                OFFSET -0.000000 -0.399231 0.000000
                CHANNELS 3 Zrotation Xrotation Yrotation
                JOINT RightToeBase
                {
                    OFFSET -0.000000 -0.060897 0.140533
                    CHANNELS 3 Zrotation Xrotation Yrotation
                    End Site
                    {
                        OFFSET -0.000000 0.000000 0.037475
                    }
                }
            }
        }
    }
}
MOTION
Frames:    4
Frame Time:    0.040000
0.289274    0.122268    -0.150028    -105.051514    -7.497361    -110.481789    -3.719242    1.786490    9.935286    20.343775    23.895407    -1.061900    -17.560013    -4.886084    -15.170207    13.206894    -0.833344    -10.442401    5.704666    -4.758587    13.555169    -7.404315    41.252735    -16.104740    -19.319164    32.038345    15.090529    24.200974    -9.011330    -15.905738    0.267173    -6.920298    -6.839491    0.000000    0.000000    0.000000    0.000000    0.000000    0.000000    -8.918612    0.000000    0.000000    -17.837225    0.000000    0.000000    -8.918612    0.000000    0.000000    -1.249255    0.000000    0.000000    -11.950942    0.000000    0.000000    -5.975471    0.000000    0.000000    6.420101    0.000000    -0.000000    -6.064656    0.000000    0.000000    -3.032328    0.000000    0.000000    14.321860    0.000000    -0.000000    0.000000    0.000000    0.000000    0.000000    0.000000    0.000000    -38.945362    -10.762733    -12.226490    4.306534    6.557345    17.436661    47.490891    60.818569    -37.815201    -18.471674    -9.763906    0.480746    0.497617    -0.055475    0.412700    0.000000    0.000000    0.000000    0.000000    0.000000    0.000000    0.726855    0.000000    -0.000000    1.453709    0.000000    -0.000000    0.726855    0.000000    -0.000000    -0.757141    0.095141    -2.400477    0.973988    0.000000    -0.000000    0.486993    0.000000    -0.000000    -2.235859    0.252315    -4.797701    0.494258    0.000000    -0.000000    0.247130    0.000000    -0.000000    -3.751164    0.478732    -7.262529    0.000000    0.000000    0.000000    0.000000    0.000000    0.000000    8.907912    -36.804123    -1.938444    -169.873871    55.927635    160.758865    -9.063884    11.917443    1.474150    1.417996    4.424808    -3.409787    -27.686708    14.017957    -14.891833    0.868804    -6.932716    16.750162    40.126747    6.867927    -44.044647    -1.157034    -47.383556    -9.650192    
0.289323    0.122269    -0.149998    -105.053886    -7.496145    -110.466492    -3.700773    1.816831    9.923072    20.322178    23.877878    -1.058161    -17.591200    -5.020532    -15.180682    13.188254    -0.684255    -10.445853    5.665678    -4.805665    13.591385    -7.329949    41.320415    -16.148006    -19.326029    32.090744    15.092418    24.248735    -9.058088    -15.879372    0.138964    -6.897970    -6.925084    0.000000    0.000000    0.000000    0.000000    0.000000    0.000000    -8.944613    0.000000    0.000000    -17.889223    0.000000    0.000000    -8.944613    0.000000    0.000000    -1.276076    0.000000    0.000000    -11.985781    0.000000    0.000000    -5.992890    0.000000    0.000000    6.392461    0.000000    -0.000000    -6.082336    0.000000    0.000000    -3.041168    0.000000    0.000000    14.293379    0.000000    -0.000000    0.000000    0.000000    0.000000    0.000000    0.000000    0.000000    -38.943756    -10.781207    -12.256349    4.297910    6.533087    17.446112    47.513237    60.810966    -37.835560    -18.480776    -9.606602    0.757852    0.262919    0.008687    0.166955    0.000000    0.000000    0.000000    0.000000    0.000000    0.000000    0.383595    0.000000    -0.000000    0.767189    0.000000    -0.000000    0.383595    0.000000    -0.000000    -0.978398    0.105783    -2.558261    0.514017    0.000000    -0.000000    0.257008    0.000000    -0.000000    -2.334323    0.272219    -5.113305    0.260844    0.000000    -0.000000    0.130422    0.000000    -0.000000    -3.722173    0.506687    -7.740956    0.000000    0.000000    0.000000    0.000000    0.000000    0.000000    8.932768    -36.795513    -1.829373    -170.007217    55.946407    160.907150    -9.051559    11.878119    1.463086    1.443303    4.471260    -3.470033    -27.686169    14.019264    -14.874415    0.877085    -6.957672    16.779831    40.113907    7.078512    -44.019768    -1.307641    -47.643719    -10.229298    
0.289406    0.122194    -0.150001    -105.044289    -7.464749    -110.477959    -3.648207    1.846297    9.930894    20.298445    23.862181    -1.047576    -17.569046    -4.995894    -15.195478    13.156583    -0.725313    -10.469625    5.588035    -4.849152    13.564830    -7.281793    41.364185    -16.093468    -19.283857    32.046841    15.075549    24.229647    -8.982334    -15.961250    0.235909    -6.969633    -6.913657    0.000000    0.000000    0.000000    0.000000    0.000000    0.000000    -9.008763    0.000000    0.000000    -18.017527    0.000000    0.000000    -9.008763    0.000000    0.000000    -1.318686    0.000000    0.000000    -12.071743    0.000000    0.000000    -6.035870    0.000000    0.000000    6.371389    0.000000    -0.000000    -6.125958    0.000000    0.000000    -3.062979    0.000000    0.000000    14.294499    0.000000    -0.000000    0.000000    0.000000    0.000000    0.000000    0.000000    0.000000    -38.981178    -10.790459    -12.317575    4.312661    6.947060    17.489834    46.645470    60.522675    -37.101051    -18.410259    -9.607479    0.591796    0.492968    -0.071911    0.431409    0.000000    0.000000    0.000000    0.000000    0.000000    0.000000    0.685570    0.000000    -0.000000    1.371140    0.000000    -0.000000    0.685570    0.000000    -0.000000    -0.781004    0.095134    -2.393838    0.918666    0.000000    -0.000000    0.459332    0.000000    -0.000000    -2.242336    0.251403    -4.784475    0.466185    0.000000    -0.000000    0.233093    0.000000    -0.000000    -3.739807    0.475955    -7.242610    0.000000    0.000000    0.000000    0.000000    0.000000    0.000000    9.013188    -36.784534    -1.730991    -170.073273    55.964634    160.984085    -9.018796    11.890608    1.467629    1.446180    4.456299    -3.479913    -27.634472    14.002754    -14.830961    0.843214    -6.942440    16.720335    40.065445    7.102425    -43.996178    -1.293597    -47.481258    -10.241197    
0.292560    0.119814    -0.152036    -104.812149    -6.580898    -110.662292    -2.937001    2.146351    10.146438    20.535637    23.749537    -1.007045    -17.803688    -4.927619    -15.190428    13.290716    -0.910897    -10.387503    4.603408    -5.294136    12.969753    -7.276034    38.902702    -15.478742    -21.965307    35.825020    17.169088    25.145805    -10.600986    -14.911342    -0.029023    -6.812232    -6.982278    0.000000    0.000000    0.000000    0.000000    0.000000    0.000000    -9.288804    0.000000    0.000000    -18.577608    0.000000    0.000000    -9.288804    0.000000    0.000000    -1.504208    0.000000    0.000000    -12.446998    0.000000    0.000000    -6.223497    0.000000    0.000000    6.280384    0.000000    -0.000000    -6.316386    0.000000    0.000000    -3.158194    0.000000    0.000000    14.300873    0.000000    -0.000000    0.000000    0.000000    0.000000    0.000000    0.000000    0.000000    -38.455326    -11.094395    -11.877974    4.046751    6.602396    17.107838    47.613583    60.921185    -38.176800    -18.628040    -9.796519    0.369224    0.631917    -0.042423    0.487519    0.000000    0.000000    0.000000    0.000000    0.000000    0.000000    0.748604    0.000000    -0.000000    1.497209    0.000000    -0.000000    0.748604    0.000000    -0.000000    -0.695155    0.091014    -2.405659    1.003133    0.000000    -0.000000    0.501565    0.000000    -0.000000    -2.133832    0.242513    -4.808276    0.509048    0.000000    -0.000000    0.254525    0.000000    -0.000000    -3.608142    0.461483    -7.278965    0.000000    0.000000    0.000000    0.000000    0.000000    0.000000    10.262269    -36.656246    -1.255754    -170.428619    56.430836    161.691452    -9.123942    12.384707    1.052164    1.438170    4.442903    -3.460659    -26.124493    13.694122    -13.886188    0.164629    -6.852141    16.374434    38.108253    8.479107    -44.615719    -1.146856    -44.782227    -10.921807    
